<svg viewBox="0 0 1400 1049.99" xmlns="http://www.w3.org/2000/svg"><g fill="#27a32e"><circle cx="699.99" cy="918.68" r="131.31" transform="matrix(.98254793 -.1860096 .1860096 .98254793 -158.72 146.29)"/><path d="m963.02 765.04c-16.8 0-33.59-6.41-46.41-19.25-57.87-57.87-134.8-89.74-216.63-89.74s-158.74 31.87-216.59 89.74c-25.63 25.66-67.19 25.65-92.83.02-25.65-25.65-25.65-67.21-.01-92.85 82.65-82.68 192.54-128.21 309.43-128.21s226.8 45.52 309.48 128.21c25.62 25.65 25.62 67.21-.01 92.85-12.82 12.82-29.62 19.23-46.42 19.23z"/><path d="m251.31 579.34c-16.81 0-33.6-6.41-46.42-19.23-25.64-25.65-25.64-67.21 0-92.84 273.01-273.06 717.22-273.07 990.23-.03 25.63 25.65 25.63 67.22 0 92.85-25.64 25.63-67.21 25.66-92.82 0-221.83-221.85-582.74-221.84-804.57.02-12.83 12.82-29.63 19.23-46.42 19.23z"/><path d="m65.65 393.65c-16.8 0-33.6-6.42-46.42-19.23-25.63-25.65-25.63-67.22 0-92.85 375.37-375.42 986.15-375.43 1361.55 0 25.63 25.64 25.63 67.22.01 92.85-25.65 25.63-67.22 25.65-92.84 0-324.23-324.24-851.71-324.25-1175.88 0-12.82 12.81-29.62 19.23-46.42 19.23z"/></g></svg>